<svg width="20" height="20" viewBox="0 0 20 20" fill="none" xmlns="http://www.w3.org/2000/svg">
<path d="M10.0006 0.000640776C4.4759 0.000640776 0 4.59314 0 10.2532C0 14.7855 2.86518 18.627 6.83605 19.9822C7.33796 20.079 7.51922 19.7618 7.51922 19.4875C7.51922 19.244 7.5136 18.6001 7.50984 17.7452C4.72655 18.363 4.14026 16.3669 4.14026 16.3669C3.68461 15.1853 3.02706 14.8681 3.02706 14.8681C2.12201 14.2344 3.09894 14.2478 3.09894 14.2478C4.10151 14.3177 4.62904 15.3019 4.62904 15.3019C5.52097 16.8706 6.96919 16.4169 7.54235 16.1529C7.62985 15.4922 7.89049 15.0379 8.17426 14.7848C5.95412 14.5279 3.6196 13.6468 3.6196 9.71814C3.6196 8.59613 4.00713 7.68237 4.64779 6.96469C4.53716 6.70773 4.19839 5.66325 4.73592 4.25097C4.73592 4.25097 5.57285 3.97735 7.48609 5.30249C8.28677 5.07501 9.13682 4.9616 9.98625 4.95583C10.8363 4.9616 11.6857 5.07565 12.4864 5.30249C14.3884 3.97735 15.2247 4.25097 15.2247 4.25097C15.7616 5.66325 15.4228 6.70709 15.3253 6.96469C15.9597 7.68237 16.3473 8.59677 16.3473 9.71814C16.3473 13.6558 14.0096 14.524 11.787 14.7746C12.1345 15.0815 12.4602 15.7127 12.4602 16.6707C12.4602 18.0419 12.4477 19.1466 12.4477 19.4805C12.4477 19.7471 12.6227 20.0675 13.1377 19.9643C17.1379 18.6231 20 14.7784 20 10.2526C20 4.5925 15.5241 0 9.99938 0L10.0006 0.000640776Z" fill="black"/>
</svg>
