<svg width="20" height="20" viewBox="0 0 20 20" fill="none" xmlns="http://www.w3.org/2000/svg">
<path d="M17.9525 5.71173C17.9647 5.88804 17.9647 6.06436 17.9647 6.2423C17.9647 11.6642 13.8371 17.9173 6.28966 17.9173V17.914C4.06013 17.9173 1.8769 17.2787 0 16.0745C0.324193 16.1135 0.65001 16.133 0.97664 16.1338C2.82429 16.1355 4.61913 15.5155 6.07272 14.3739C4.31688 14.3406 2.77717 13.1958 2.23928 11.5244C2.85436 11.6431 3.48812 11.6187 4.09181 11.4538C2.17753 11.067 0.800325 9.3851 0.800325 7.43182V7.37982C1.37071 7.69751 2.00934 7.87383 2.6626 7.89333C0.859638 6.68837 0.30388 4.28983 1.39265 2.41455C3.47593 4.97803 6.54966 6.53643 9.84928 6.70137C9.51859 5.27622 9.97034 3.78282 11.0364 2.781C12.689 1.22747 15.2882 1.3071 16.8418 2.95894C17.7607 2.77775 18.6415 2.44055 19.4475 1.9628C19.1412 2.91262 18.5001 3.71945 17.6437 4.23214C18.457 4.13627 19.2517 3.91851 20 3.5862C19.4491 4.41171 18.7552 5.13078 17.9525 5.71173Z" fill="black"/>
</svg>
